# xmcd
# 
# Track frame offsets:
#     150
#     19252
#     32400
#     44473
#     65125
#     82158
#     100979
#     115479
#     134465
#     148171
#     166965
#     180177
#     197382
#     210824
#     229778
#     256029
#     276860
#     289363
# 
# Disc length: 4256
# 
# Revision: 0
# Processed by: cddbd v1.5.2PL0 Copyright (c) Steve Scherf et al.
# Submitted via: fre:ac v1.0.17
# 
DISCID=04109e12
DTITLE=Brendan Quinn - Country and Irish
DYEAR=2004
DGENRE=Country
TTITLE0=Johnny McCauley Medley: The Picture on the Wall/Four Country Roads/Pretty Little Girl from Omagh
TTITLE1=I'ts Four in the Morning
TTITLE2=To Daddy
TTITLE3=Grace
TTITLE4=The Hustler
TTITLE5=Irish Medley: Lovely Leitrim/Any Tipperary Town/The Rose of Aranmore
TTITLE6=The Cowboy Rides Away
TTITLE7=Sonny
TTITLE8=Moonlight in Mayo
TTITLE9=Don't Close Your Eyes
TTITLE10=Bonaparte's Retreat
TTITLE11=The Lady from Glenfarne
TTITLE12=Angeline (Would You Like to Dance Again)
TTITLE13=Merle Haggard Medley: Mama Tried/Daddy Frank/The Fightin' Side of Me
TTITLE14=The Town I Love so Well
TTITLE15=Jim Reeves Medley: He'll Have to Go/I Won't Forget You/I Love You Because
TTITLE16=The Auld Dungarvin Oak
TTITLE17=Irish Medley: Dublin in the Rare Auld Times/Fields of Athenry/My Lovely Rose of Clare
EXTD=
EXTT0=
EXTT1=
EXTT2=
EXTT3=
EXTT4=
EXTT5=
EXTT6=
EXTT7=
EXTT8=
EXTT9=
EXTT10=
EXTT11=
EXTT12=
EXTT13=
EXTT14=
EXTT15=
EXTT16=
EXTT17=
PLAYORDER=
